<svg xmlns="http://www.w3.org/2000/svg" width="17.333" height="17.333" viewBox="0 0 17.333 17.333">
  <g id="_5084665_add_create_new_plus_icon_1_" data-name="5084665_add_create_new_plus_icon (1)" transform="translate(-2 -2)">
    <path id="Path_1415" data-name="Path 1415" d="M15.2,4.891V3.653A1.653,1.653,0,0,0,13.557,2h-9.9A1.659,1.659,0,0,0,2,3.653v9.9A1.653,1.653,0,0,0,3.653,15.2H4.891V7.367A2.476,2.476,0,0,1,7.367,4.891Z" fill="#fff"/>
    <path id="Path_1416" data-name="Path 1416" d="M20.636,8.67H9.908A1.238,1.238,0,0,0,8.67,9.908V20.636a1.238,1.238,0,0,0,1.238,1.238H20.636a1.238,1.238,0,0,0,1.238-1.238V9.908A1.238,1.238,0,0,0,20.636,8.67Zm-2.061,7.218H15.888v2.687a.619.619,0,1,1-1.238,0V15.888h-2.68A.616.616,0,0,1,11.412,15l.291-.291a.619.619,0,0,1,.266-.062h2.68v-2.68a.619.619,0,0,1,.062-.266L15,11.412a.616.616,0,0,1,.885.557v2.68h2.687a.619.619,0,1,1,0,1.238Z" transform="translate(-2.541 -2.541)" fill="#fff"/>
  </g>
</svg>
