<svg xmlns="http://www.w3.org/2000/svg" width="32.872" height="28.239" viewBox="0 0 32.872 28.239">
  <path id="_7787524_cart_shopping_shop_ecommerce_buy_icon" data-name="7787524_cart_shopping_shop_ecommerce_buy_icon" d="M43.1,29.12a3.374,3.374,0,0,0-1.3-.185H24.953a8.221,8.221,0,0,0-2.129.093,1.785,1.785,0,0,0-1.389,1.759,1.852,1.852,0,0,0,1.852,1.852H40.045l-1.481,7.777A1.892,1.892,0,0,1,36.711,41.9H22.823a1.974,1.974,0,0,1-1.852-1.481l-2.963-13.7A3.759,3.759,0,0,0,14.4,23.75H13.1a1.852,1.852,0,0,0,0,3.7h1.3l2.963,13.7a5.476,5.476,0,0,0,5.463,4.352H36.711A5.523,5.523,0,0,0,41.9,41.9a41.444,41.444,0,0,0,1.018-4.629c.278-1.574.648-3.148.926-4.629a3.289,3.289,0,0,0,.185-.926,3.148,3.148,0,0,0,.093-.926A1.664,1.664,0,0,0,43.1,29.12ZM18.657,49.211a2.778,2.778,0,0,0,5.555,0h0a2.778,2.778,0,1,0-5.555,0Zm16.666,0A2.778,2.778,0,1,0,38.1,46.434a2.778,2.778,0,0,0-2.778,2.778Z" transform="translate(-11.25 -23.75)" fill="#63719c"/>
</svg>
