<svg id="_20._Add" data-name="20. Add" xmlns="http://www.w3.org/2000/svg" width="19.667" height="19.667" viewBox="0 0 19.667 19.667">
  <path id="Path_1408" data-name="Path 1408" d="M13.931,6.556a7.326,7.326,0,0,1,4.1,1.246V3.278A3.278,3.278,0,0,0,14.75,0H3.278A3.278,3.278,0,0,0,0,3.278V14.75a3.278,3.278,0,0,0,3.278,3.278H7.8A7.375,7.375,0,0,1,13.931,6.556Z" fill="#fff"/>
  <path id="Path_1409" data-name="Path 1409" d="M15.736,10a5.736,5.736,0,1,0,5.736,5.736A5.736,5.736,0,0,0,15.736,10Zm1.639,6.556h-.819v.819a.819.819,0,0,1-1.639,0v-.819H14.1a.819.819,0,0,1,0-1.639h.819V14.1a.819.819,0,0,1,1.639,0v.819h.819a.819.819,0,0,1,0,1.639Z" transform="translate(-1.806 -1.806)" fill="#fff"/>
</svg>
