<svg id="_5402359_basket_cart_ecommerce_shopping_buy_icon" data-name="5402359_basket_cart_ecommerce_shopping_buy_icon" xmlns="http://www.w3.org/2000/svg" width="22.924" height="23.067" viewBox="0 0 22.924 23.067">
  <path id="Path_1343" data-name="Path 1343" d="M24.964,8.055v.15L23.28,14.433a3.46,3.46,0,0,1-3.368,2.56H11.089a3.46,3.46,0,0,1-3.46-3.149L6.88,5.356a1.153,1.153,0,0,0-1.153-1.05h-2.5A1.153,1.153,0,1,1,3.223,2h2.5a3.46,3.46,0,0,1,3.46,3.149V5.46H22.669a2.307,2.307,0,0,1,2.307,2.6Z" transform="translate(-2.07 -2)" fill="#fff"/>
  <circle id="Ellipse_138" data-name="Ellipse 138" cx="2.883" cy="2.883" r="2.883" transform="translate(5.19 17.301)" fill="#fff"/>
  <circle id="Ellipse_139" data-name="Ellipse 139" cx="2.883" cy="2.883" r="2.883" transform="translate(14.417 17.301)" fill="#fff"/>
</svg>
