<svg xmlns="http://www.w3.org/2000/svg" width="22.042" height="22" viewBox="0 0 22.042 22">
  <path id="_9117932_arrow_back_thick_fill_icon" data-name="9117932_arrow_back_thick_fill_icon" d="M10,2a1,1,0,0,0-1.789-.614l-7,9a1,1,0,0,0,0,1.228l7,9A1,1,0,0,0,10,20V16.01c5.379.112,7.963,1.133,9.261,2.243a5.409,5.409,0,0,1,1.694,3.6h0q.03.167.061.334A1,1,0,0,0,23,22.062,18.232,18.232,0,0,0,20.971,12C19.087,8.768,15.694,6.282,10,6.022Z" transform="translate(-1 -1)" fill="#fff" fill-rule="evenodd"/>
</svg>
