<svg xmlns="http://www.w3.org/2000/svg" width="25.059" height="22.781" viewBox="0 0 25.059 22.781">
  <g id="icons" transform="translate(-1 -2)">
    <g id="dashboard" transform="translate(1 2)">
      <path id="Path_581" data-name="Path 581" d="M5.556,18H3.278a2.278,2.278,0,0,0,0,4.556H5.556a2.278,2.278,0,0,0,0-4.556Z" transform="translate(-1 0.225)" fill="#fff"/>
      <path id="Path_582" data-name="Path 582" d="M13.556,16H11.278A2.285,2.285,0,0,0,9,18.278v2.278a2.285,2.285,0,0,0,2.278,2.278h2.278a2.285,2.285,0,0,0,2.278-2.278V18.278A2.285,2.285,0,0,0,13.556,16Z" transform="translate(0.112 -0.053)" fill="#fff"/>
      <path id="Path_583" data-name="Path 583" d="M21.556,12H19.278A2.285,2.285,0,0,0,17,14.278v6.834a2.285,2.285,0,0,0,2.278,2.278h2.278a2.285,2.285,0,0,0,2.278-2.278V14.278A2.285,2.285,0,0,0,21.556,12Z" transform="translate(1.225 -0.61)" fill="#fff"/>
      <path id="Path_584" data-name="Path 584" d="M24.92,2H17.4a1.139,1.139,0,0,0-.8,1.936L18.769,6.1c-4.214,4.784-10.251,8.429-16.63,8.429a1.139,1.139,0,1,0,0,2.278c7.632,0,14.694-2.164,19.819-7.518l2.05,2.05a1.139,1.139,0,0,0,1.936-.8v-7.4A.942.942,0,0,0,24.92,2Z" transform="translate(-1 -2)" fill="#fff"/>
    </g>
  </g>
</svg>
