<svg xmlns="http://www.w3.org/2000/svg" width="26.513" height="19.884" viewBox="0 0 26.513 19.884">
  <g id="icons" transform="translate(0 -3)">
    <g id="card" transform="translate(0 3)">
      <path id="Path_585" data-name="Path 585" d="M22.094,3H4.419A4.432,4.432,0,0,0,0,7.419v1.1a1.044,1.044,0,0,0,1.1,1.1h24.3a1.044,1.044,0,0,0,1.1-1.1v-1.1A4.432,4.432,0,0,0,22.094,3Z" transform="translate(0 -3)" fill="#fff"/>
      <path id="Path_586" data-name="Path 586" d="M25.408,11H1.1A1.044,1.044,0,0,0,0,12.1v5.523a4.432,4.432,0,0,0,4.419,4.419H22.094a4.432,4.432,0,0,0,4.419-4.419V12.1A1.044,1.044,0,0,0,25.408,11ZM12.152,18.733H5.523a1.1,1.1,0,0,1,0-2.209h6.628a1.1,1.1,0,0,1,0,2.209Zm8.838-3.314H18.78a1.1,1.1,0,0,1,0-2.209h2.209a1.1,1.1,0,0,1,0,2.209Z" transform="translate(0 -2.162)" fill="#fff"/>
    </g>
  </g>
</svg>
