<svg id="_296566_file_directory_ordered_order_instructions_icon" data-name="296566_file_directory_ordered_order_instructions_icon" xmlns="http://www.w3.org/2000/svg" width="20.76" height="21.446" viewBox="0 0 20.76 21.446">
  <g id="Group_3821" data-name="Group 3821">
    <path id="Path_576" data-name="Path 576" d="M161.694,141H147.05a3.07,3.07,0,0,0-3.05,3.147v15.121a3.1,3.1,0,0,0,3.05,3.177h14.644a3.109,3.109,0,0,0,3.066-3.177V144.147A3.083,3.083,0,0,0,161.694,141Zm1.3,18.268a1.322,1.322,0,0,1-1.3,1.317H147.05a1.309,1.309,0,0,1-1.288-1.317V144.147a1.283,1.283,0,0,1,1.288-1.287h14.644a1.3,1.3,0,0,1,1.3,1.287Z" transform="translate(-144 -141)" fill="#fff"/>
    <path id="Path_577" data-name="Path 577" d="M231.851,219h-6.8a.882.882,0,1,0,0,1.763h6.8a.882.882,0,1,0,0-1.763Z" transform="translate(-216.292 -211.362)" fill="#fff"/>
    <ellipse id="Ellipse_62" data-name="Ellipse 62" cx="0.911" cy="0.94" rx="0.911" ry="0.94" transform="translate(4.465 7.583)" fill="#fff"/>
    <path id="Path_578" data-name="Path 578" d="M231.851,256h-6.8a.931.931,0,0,0,0,1.861h6.8a.931.931,0,0,0,0-1.861Z" transform="translate(-216.292 -244.739)" fill="#fff"/>
    <ellipse id="Ellipse_63" data-name="Ellipse 63" cx="0.911" cy="0.94" rx="0.911" ry="0.94" transform="translate(4.465 11.281)" fill="#fff"/>
    <path id="Path_579" data-name="Path 579" d="M231.851,294h-6.8a.93.93,0,0,0,0,1.861h6.8a.93.93,0,0,0,0-1.861Z" transform="translate(-216.292 -279.017)" fill="#fff"/>
    <ellipse id="Ellipse_64" data-name="Ellipse 64" cx="0.911" cy="0.94" rx="0.911" ry="0.94" transform="translate(4.465 14.98)" fill="#fff"/>
    <path id="Path_580" data-name="Path 580" d="M196.995,181H186.411a.931.931,0,0,0,0,1.861h10.584a.931.931,0,0,0,0-1.861Z" transform="translate(-181.436 -177.083)" fill="#fff"/>
  </g>
</svg>
