<svg xmlns="http://www.w3.org/2000/svg" width="16.964" height="22.619" viewBox="0 0 16.964 22.619">
  <path id="_8541957_file_invoice_icon" data-name="8541957_file_invoice_icon" d="M12.723,11.309H4.241v2.827h8.482Zm3.932-6.671L12.33.309A1.059,1.059,0,0,0,11.579,0h-.269V5.655h5.655V5.385A1.057,1.057,0,0,0,16.655,4.639ZM9.9,6.008V0H1.06A1.058,1.058,0,0,0,0,1.06v20.5a1.058,1.058,0,0,0,1.06,1.06H15.9a1.058,1.058,0,0,0,1.06-1.06V7.068H10.956A1.063,1.063,0,0,1,9.9,6.008ZM2.827,3.181a.353.353,0,0,1,.353-.353H6.715a.353.353,0,0,1,.353.353v.707a.353.353,0,0,1-.353.353H3.181a.353.353,0,0,1-.353-.353Zm0,2.827a.353.353,0,0,1,.353-.353H6.715a.353.353,0,0,1,.353.353v.707a.353.353,0,0,1-.353.353H3.181a.353.353,0,0,1-.353-.353Zm11.309,13.43a.353.353,0,0,1-.353.353H10.249a.353.353,0,0,1-.353-.353v-.707a.353.353,0,0,1,.353-.353h3.534a.353.353,0,0,1,.353.353Zm0-8.835v4.241a.707.707,0,0,1-.707.707h-9.9a.707.707,0,0,1-.707-.707V10.6A.707.707,0,0,1,3.534,9.9h9.9A.707.707,0,0,1,14.137,10.6Z" fill="#fff"/>
</svg>
