<svg xmlns="http://www.w3.org/2000/svg" width="17.059" height="17.059" viewBox="0 0 17.059 17.059">
  <g id="Icon_feather-eye-off" data-name="Icon feather-eye-off" transform="translate(0.707 0.707)">
    <path id="Path_648" data-name="Path 648" d="M13.046,13.913a7.161,7.161,0,0,1-4.224,1.465C3.844,15.378,1,9.689,1,9.689A13.12,13.12,0,0,1,4.6,5.465M7.329,4.171A6.485,6.485,0,0,1,8.822,4c4.978,0,7.822,5.689,7.822,5.689a13.156,13.156,0,0,1-1.536,2.268M10.33,11.2A2.133,2.133,0,1,1,7.315,8.181" transform="translate(-1 -1.867)" fill="none" stroke="#bbb" stroke-linecap="round" stroke-linejoin="round" stroke-width="1"/>
    <path id="Path_649" data-name="Path 649" d="M1,1,16.644,16.644" transform="translate(-1 -1)" fill="none" stroke="#bbb" stroke-linecap="round" stroke-linejoin="round" stroke-width="1"/>
  </g>
</svg>
