<svg id="Layer_2" data-name="Layer 2" xmlns="http://www.w3.org/2000/svg" width="20.01" height="26.006" viewBox="0 0 20.01 26.006">
  <path id="Path_1289" data-name="Path 1289" d="M25,14a1,1,0,0,1-.71-.29L16,5.41l-8.29,8.3a1,1,0,0,1-1.42-1.42l9-9a1,1,0,0,1,1.42,0l9,9A1,1,0,0,1,25,14Z" transform="translate(-5.996 -2.994)" fill="#faab68"/>
  <path id="Path_1290" data-name="Path 1290" d="M16,29a1,1,0,0,1-1-1V4a1,1,0,0,1,2,0V28A1,1,0,0,1,16,29Z" transform="translate(-5.996 -2.994)" fill="#faab68"/>
</svg>
