<svg xmlns="http://www.w3.org/2000/svg" width="27.054" height="32" viewBox="0 0 27.054 32">
  <path id="_8726131_location_point_icon" data-name="8726131_location_point_icon" d="M26.621,5.959A13.535,13.535,0,1,0,7.479,25.1l8.406,8.422a1.6,1.6,0,0,0,2.265,0l8.47-8.5a13.479,13.479,0,0,0,0-19.062ZM24.34,22.74l-7.29,7.322L9.76,22.74a10.3,10.3,0,1,1,14.579,0ZM12.264,10.633A6.88,6.88,0,1,0,24,15.578a6.763,6.763,0,0,0-2.01-4.865,6.859,6.859,0,0,0-9.73-.08ZM19.746,18.1a1.537,1.537,0,1,0-.08,0Z" transform="translate(-3.515 -1.995)" fill="#98b694"/>
</svg>
