<svg xmlns="http://www.w3.org/2000/svg" width="16.334" height="12.25" viewBox="0 0 16.334 12.25">
  <path id="_8665305_envelope_email_icon" data-name="8665305_envelope_email_icon" d="M8.167,73.188a2.438,2.438,0,0,1-1.5-.524L0,67.484v7.235A1.531,1.531,0,0,0,1.531,76.25H14.8a1.531,1.531,0,0,0,1.531-1.531V67.484L9.673,72.668A2.457,2.457,0,0,1,8.167,73.188ZM.52,66.594l6.77,5.267a1.43,1.43,0,0,0,1.757,0l6.77-5.267a1.441,1.441,0,0,0,.518-1.062A1.531,1.531,0,0,0,14.8,64H1.531A1.531,1.531,0,0,0,0,65.531,1.347,1.347,0,0,0,.52,66.594Z" transform="translate(0 -64)" fill="#63719c"/>
</svg>
