<svg xmlns="http://www.w3.org/2000/svg" width="23.132" height="30.888" viewBox="0 0 23.132 30.888">
  <g id="_511559_document_download_pdf_file_files_icon" data-name="511559_document_download_pdf_file_files_icon" transform="translate(-13.086 -9.355)">
    <g id="Group_4397" data-name="Group 4397" transform="translate(13.086 9.355)">
      <path id="Path_1386" data-name="Path 1386" d="M55.135,55.249H36.828a2.415,2.415,0,0,1-2.412-2.412V26.773a2.415,2.415,0,0,1,2.412-2.412h10.66a5.7,5.7,0,0,1,3.561,1.475l5.023,5.023a5.7,5.7,0,0,1,1.475,3.561V52.837A2.415,2.415,0,0,1,55.135,55.249ZM36.828,25.474a1.3,1.3,0,0,0-1.3,1.3V52.837a1.3,1.3,0,0,0,1.3,1.3H55.135a1.3,1.3,0,0,0,1.3-1.3V34.421a4.658,4.658,0,0,0-1.149-2.774l-5.023-5.023a4.66,4.66,0,0,0-2.774-1.149Z" transform="translate(-34.416 -24.361)" fill="#313335"/>
    </g>
    <g id="Group_4398" data-name="Group 4398" transform="translate(27.457 10.252)">
      <path id="Path_1387" data-name="Path 1387" d="M79.49,34.642H75.554a2.415,2.415,0,0,1-2.412-2.412V28.294c0-1.118.6-1.515,1.114-1.515a1.666,1.666,0,0,1,1.148.578l5.023,5.023c.7.7.615,1.261.5,1.533S80.48,34.642,79.49,34.642ZM74.308,27.91a1.083,1.083,0,0,0-.053.384V32.23a1.3,1.3,0,0,0,1.3,1.3H79.49a1.083,1.083,0,0,0,.384-.053,1.074,1.074,0,0,0-.234-.309l-5.023-5.023A1.081,1.081,0,0,0,74.308,27.91Z" transform="translate(-73.142 -26.779)" fill="#313335"/>
    </g>
    <g id="Group_4400" data-name="Group 4400" transform="translate(18.286 31.323)">
      <path id="Path_1389" data-name="Path 1389" d="M50.428,86.705h-.956v1.458a.681.681,0,0,1-.147.474.519.519,0,0,1-.751,0,.679.679,0,0,1-.144-.469V84.2a.651.651,0,0,1,.158-.492.719.719,0,0,1,.5-.147h1.338a3.513,3.513,0,0,1,.914.091,1.363,1.363,0,0,1,.546.292,1.31,1.31,0,0,1,.35.5,1.754,1.754,0,0,1,.119.664,1.467,1.467,0,0,1-.485,1.193A2.206,2.206,0,0,1,50.428,86.705Zm-.253-2.361h-.7v1.574h.7a2.1,2.1,0,0,0,.617-.077.721.721,0,0,0,.378-.253.756.756,0,0,0,.13-.46.782.782,0,0,0-.2-.555A1.337,1.337,0,0,0,50.175,84.344Z" transform="translate(-48.429 -83.561)" fill="#313335"/>
      <path id="Path_1390" data-name="Path 1390" d="M62.02,83.561h1.36a3.662,3.662,0,0,1,.91.1,1.674,1.674,0,0,1,.688.369,2.606,2.606,0,0,1,.8,2.094,4.114,4.114,0,0,1-.081.847,2.5,2.5,0,0,1-.25.69,2.137,2.137,0,0,1-.432.55,1.775,1.775,0,0,1-.453.3,2.044,2.044,0,0,1-.529.158,4.024,4.024,0,0,1-.638.046H62.041a.85.85,0,0,1-.429-.086.4.4,0,0,1-.188-.242,1.539,1.539,0,0,1-.044-.406V84.2a.547.547,0,0,1,.639-.639Zm.4.825v3.5h.79q.26,0,.408-.014a1.267,1.267,0,0,0,.305-.07.831.831,0,0,0,.274-.158,1.907,1.907,0,0,0,.524-1.524,2.247,2.247,0,0,0-.23-1.142,1.027,1.027,0,0,0-.567-.483,2.8,2.8,0,0,0-.815-.1h-.689Z" transform="translate(-56.575 -83.561)" fill="#313335"/>
      <path id="Path_1391" data-name="Path 1391" d="M78.755,84.366H76.7v1.317h1.718a.515.515,0,0,1,.357.107.369.369,0,0,1,.118.286.36.36,0,0,1-.119.285.523.523,0,0,1-.355.105H76.7v1.7a.682.682,0,0,1-.146.479.529.529,0,0,1-.752,0,.684.684,0,0,1-.146-.478V84.2a.869.869,0,0,1,.067-.367.416.416,0,0,1,.209-.207.877.877,0,0,1,.363-.065h2.459a.535.535,0,0,1,.371.111.374.374,0,0,1,.121.29.379.379,0,0,1-.121.294A.533.533,0,0,1,78.755,84.366Z" transform="translate(-65.552 -83.561)" fill="#313335"/>
    </g>
    <g id="Group_4401" data-name="Group 4401" transform="translate(16.276 12.901)">
      <path id="Path_1392" data-name="Path 1392" d="M44.278,50.646a1.206,1.206,0,0,1-1.17-.741c-.314-.771.139-1.832,1.243-2.91a9.594,9.594,0,0,1,3.591-2.068,39.245,39.245,0,0,0,2.073-4.477,6.821,6.821,0,0,1-.964-5.251A1.718,1.718,0,0,1,50.1,33.985a1.178,1.178,0,0,1,1.27.316c.5.536.681,1.615.559,3.3a10.987,10.987,0,0,1-.664,2.683l.052.064c.262.32.541.672.834,1.042.625.788,1.327,1.673,2.041,2.466q.317-.01.611-.01c2.523,0,4.217.528,4.77,1.486a1.233,1.233,0,0,1,.014,1.262,1.976,1.976,0,0,1-1.774.848h0a3.3,3.3,0,0,1-.6-.056,7.055,7.055,0,0,1-3.49-2.4c-.348.019-.713.046-1.087.083a19.96,19.96,0,0,0-3.924.774c-.675,1.22-2.129,3.683-3.213,4.392A2.274,2.274,0,0,1,44.278,50.646Zm2.769-4.15a7.218,7.218,0,0,0-1.918,1.3c-.981.958-1.045,1.559-.99,1.693.016.039.085.047.139.047a1.221,1.221,0,0,0,.609-.227A10.553,10.553,0,0,0,47.047,46.5Zm8.225-1.53a4.753,4.753,0,0,0,2.14,1.324,2.214,2.214,0,0,0,.4.038h0a.966.966,0,0,0,.81-.291c.015-.026.036-.062-.014-.148C58.418,45.565,57.507,45.032,55.273,44.966ZM50.8,41.487c-.389.955-.862,1.988-1.376,3a22.019,22.019,0,0,1,3.1-.526l.259-.024c-.531-.626-1.042-1.269-1.51-1.859C51.114,41.877,50.956,41.678,50.8,41.487Zm-.3-6.457a.178.178,0,0,0-.054.011c-.125.042-.253.23-.343.5a5.371,5.371,0,0,0,.4,3.468,7.517,7.517,0,0,0,.311-1.493c.136-1.874-.167-2.357-.264-2.46C50.525,35.03,50.515,35.03,50.506,35.03Z" transform="translate(-43.011 -33.917)" fill="#ee3e36"/>
    </g>
  </g>
</svg>
