<svg id="_3669395_call_ic_icon" data-name="3669395_call_ic_icon" xmlns="http://www.w3.org/2000/svg" width="18" height="18" viewBox="0 0 18 18">
  <path id="Path_1352" data-name="Path 1352" d="M0,0H18V18H0Z" fill="none"/>
  <path id="Path_1353" data-name="Path 1353" d="M8.719,11.846a11.3,11.3,0,0,0,4.943,4.939l1.65-1.654a.752.752,0,0,1,.761-.184,8.538,8.538,0,0,0,2.677.427.747.747,0,0,1,.75.75V18.75a.747.747,0,0,1-.75.75A12.749,12.749,0,0,1,6,6.75.75.75,0,0,1,6.75,6H9.375a.747.747,0,0,1,.75.75,8.538,8.538,0,0,0,.427,2.677.752.752,0,0,1-.184.761Z" transform="translate(-3.75 -3.75)" fill="#63719c"/>
</svg>
