<svg xmlns="http://www.w3.org/2000/svg" width="12" height="13.426" viewBox="0 0 12 13.426">
  <g id="_285645_user_icon" data-name="285645_user_icon" transform="translate(-3.063 -1030.4)">
    <path id="Path_1340" data-name="Path 1340" d="M6.65,1041.1a6.1,6.1,0,0,0-3.587,4.9,1.309,1.309,0,0,0,1.3,1.343h9.4a1.309,1.309,0,0,0,1.3-1.343,6.1,6.1,0,0,0-3.587-4.9,2.75,2.75,0,0,1-2.413,1.544A2.749,2.749,0,0,1,6.65,1041.1Z" transform="translate(0 -3.517)" fill="#58ce15"/>
    <path id="Path_1341" data-name="Path 1341" d="M13.713,2.357A3.357,3.357,0,1,1,10.357-1,3.357,3.357,0,0,1,13.713,2.357Z" transform="translate(-1.294 1031.4)" fill="#58ce15"/>
    <path id="Path_1342" data-name="Path 1342" d="M9.062,11a6.038,6.038,0,0,0-6,5.37,1.307,1.307,0,0,0,1.3,1.343h9.4a1.307,1.307,0,0,0,1.3-1.343,6.038,6.038,0,0,0-6-5.37Z" transform="translate(0 1025.442)" fill="#58ce15"/>
  </g>
</svg>
