<svg xmlns="http://www.w3.org/2000/svg" width="15.531" height="15.333" viewBox="0 0 15.531 15.333">
  <g id="Share" transform="translate(0.5 0.5)">
    <path id="Path_1375" data-name="Path 1375" d="M8.624,9.557h.9A7.593,7.593,0,0,1,17,3.286l.456,0L15.815,4.929a.448.448,0,1,0,.633.633l2.646-2.716L16.449.131a.448.448,0,1,0-.633.633l1.626,1.626h-.423A8.506,8.506,0,0,0,8.624,9.557Z" transform="translate(-4.761)" fill="#fff" stroke="#fff" stroke-width="1" fill-rule="evenodd"/>
    <path id="Path_1376" data-name="Path 1376" d="M12.99,11.135a.448.448,0,0,0-.448.448v6.271H.9V8.9H4.927a.448.448,0,0,0,0-.9H.9a.9.9,0,0,0-.9.9v8.958a.9.9,0,0,0,.9.9H12.542a.9.9,0,0,0,.9-.9V11.583A.448.448,0,0,0,12.99,11.135Z" transform="translate(0 -4.417)" fill="#fff" stroke="#fff" stroke-width="1" fill-rule="evenodd"/>
  </g>
</svg>
