<svg xmlns="http://www.w3.org/2000/svg" width="19.996" height="22.853" viewBox="0 0 19.996 22.853">
  <path id="_8665036_calendar_check_icon" data-name="8665036_calendar_check_icon" d="M7.142,1.428V2.857h5.713V1.428a1.428,1.428,0,0,1,2.857,0V2.857h2.142A2.143,2.143,0,0,1,20,5V7.142H0V5A2.142,2.142,0,0,1,2.142,2.857H4.285V1.428a1.428,1.428,0,1,1,2.857,0ZM0,8.57H20V20.711a2.143,2.143,0,0,1-2.142,2.142H2.142A2.143,2.143,0,0,1,0,20.711Zm14.645,5a.97.97,0,0,0,0-1.477,1.032,1.032,0,0,0-1.477,0l-4.24,4.245-2.138-2.1a1.045,1.045,0,0,0-1.477,1.477l2.857,2.857a.97.97,0,0,0,1.477,0Z" fill="#fff"/>
</svg>
